<?xml version="1.0" standalone="no"?>
<!DOCTYPE svg PUBLIC "-//W3C//DTD SVG 20010904//EN"
 "http://www.w3.org/TR/2001/REC-SVG-20010904/DTD/svg10.dtd">
<svg version="1.0" xmlns="http://www.w3.org/2000/svg"
 width="400.000000pt" height="400.000000pt" viewBox="0 0 400.000000 400.000000"
 preserveAspectRatio="xMidYMid meet">
<metadata>
Created by potrace 1.11, written by Peter Selinger 2001-2013
</metadata>
<g transform="translate(0.000000,400.000000) scale(0.100000,-0.100000)"
fill="#000000" stroke="none">
<path d="M1541 3945 l-23 -55 82 -140 c46 -77 81 -142 79 -144 -2 -1 -301 -66
-664 -144 -441 -95 -668 -148 -685 -160 -14 -10 -34 -36 -44 -57 l-19 -39 62
-290 c39 -180 59 -292 52 -294 -29 -10 -77 -51 -95 -82 -30 -50 -29 -195 2
-303 49 -174 130 -277 217 -277 13 0 26 -3 28 -7 3 -5 30 -127 62 -272 59
-278 71 -308 125 -331 35 -15 35 -13 13 -132 -34 -194 -19 -396 38 -515 44
-91 150 -179 237 -198 l32 -7 -7 -219 -6 -219 501 0 502 0 0 199 0 199 63 -5
c34 -3 66 -9 70 -13 8 -7 38 -136 77 -322 l11 -58 471 0 471 0 -5 215 -5 214
56 17 c145 41 239 147 277 311 15 67 20 269 8 343 -31 192 -83 385 -155 578
-28 74 -49 135 -47 137 2 2 76 19 165 39 89 19 173 42 187 51 26 17 56 71 56
102 0 10 -25 137 -56 281 l-56 264 30 27 c59 55 67 82 67 236 0 117 -4 152
-22 211 -40 127 -102 194 -179 194 l-41 0 -58 273 c-31 149 -63 287 -71 304
-16 41 -68 73 -116 73 -31 0 -379 -72 -1152 -240 -104 -22 -195 -39 -202 -36
-20 8 -224 250 -224 266 0 8 4 30 9 48 l10 32 -53 0 -52 0 -23 -55z m1642
-237 c3 -13 31 -140 62 -283 55 -259 61 -285 109 -505 14 -63 52 -243 86 -400
33 -157 67 -311 74 -342 12 -52 12 -58 -3 -62 -9 -3 -90 -20 -181 -40 -254
-54 -813 -174 -1363 -293 l-498 -107 -56 19 c-120 41 -222 144 -305 310 -46
91 -127 328 -159 467 -31 129 -31 320 -1 432 32 115 95 226 181 318 82 87 74
83 296 131 114 25 308 66 1225 263 217 46 420 91 450 98 75 19 77 19 83 -6z
m-17 -1975 c35 -83 113 -335 139 -448 24 -102 28 -143 29 -275 1 -151 0 -157
-27 -212 -29 -59 -64 -92 -110 -103 -30 -8 -32 -3 -42 100 -18 176 -97 577
-151 761 -20 70 -23 98 -18 150 l7 64 78 0 79 0 16 -37z m-384 -118 c110 -387
186 -815 203 -1135 3 -63 8 -141 11 -172 l6 -58 -296 0 -296 0 -5 23 c-3 12
-16 73 -29 135 l-24 113 39 20 c46 23 146 120 171 165 l18 32 -30 4 c-16 2
-27 1 -24 -3 12 -20 -350 -82 -434 -74 -15 2 -63 6 -107 10 -84 7 -121 13
-273 47 -51 11 -96 18 -99 14 -11 -11 51 -89 108 -135 30 -25 53 -49 51 -54
-1 -4 2 -6 8 -2 5 3 18 1 29 -5 18 -9 20 -23 23 -150 2 -77 1 -140 -1 -140
-33 0 -236 61 -296 89 -97 45 -146 87 -176 147 -20 43 -21 56 -16 197 3 84 12
186 21 227 67 312 344 523 852 649 159 40 479 91 538 87 13 -1 23 -12 28 -31z"/>
<path d="M2870 2463 c-322 -22 -739 -90 -1070 -174 -257 -65 -605 -189 -584
-208 13 -12 125 -49 203 -67 335 -78 668 -65 960 38 110 39 275 123 373 190
87 60 258 205 258 219 0 9 -40 9 -140 2z"/>
<path d="M2972 430 c0 -19 2 -27 5 -17 2 9 2 25 0 35 -3 9 -5 1 -5 -18z"/>
</g>
</svg>
